<svg width="139" height="79" viewBox="0 0 139 79" fill="none" xmlns="http://www.w3.org/2000/svg">
<circle cx="33.5" cy="46" r="33" fill="#187EDC"/>
<path d="M72.8334 19L42.2427 49.5907C39.8996 51.9338 36.1006 51.9338 33.7574 49.5907L22.1667 38" stroke="#051930" stroke-width="10" stroke-linecap="round" stroke-linejoin="round"/>
<path d="M80.206 37V35.398H78.388V29.242H80.35V27.64H78.388V25.084H76.624V26.722C76.624 27.37 76.408 27.64 75.76 27.64H74.968V29.242H76.426V34.966C76.426 36.244 77.146 37 78.496 37H80.206ZM86.6199 37.216C89.2299 37.216 90.9219 35.308 90.9219 32.32C90.9219 29.332 89.2299 27.424 86.6199 27.424C84.0099 27.424 82.3179 29.332 82.3179 32.32C82.3179 35.308 84.0099 37.216 86.6199 37.216ZM86.6199 35.596C85.2879 35.596 84.3879 34.768 84.3879 33.112V31.528C84.3879 29.872 85.2879 29.044 86.6199 29.044C87.9519 29.044 88.8519 29.872 88.8519 31.528V33.112C88.8519 34.768 87.9519 35.596 86.6199 35.596Z" fill="white"/>
<path d="M77.426 40.476H87.42C89.168 40.476 90.764 40.7547 92.208 41.312C93.652 41.8693 94.8807 42.7053 95.894 43.82C96.9073 44.9093 97.6927 46.29 98.25 47.962C98.8073 49.6087 99.086 51.534 99.086 53.738C99.086 55.942 98.8073 57.88 98.25 59.552C97.6927 61.1987 96.9073 62.5793 95.894 63.694C94.8807 64.7833 93.652 65.6067 92.208 66.164C90.764 66.7213 89.168 67 87.42 67H77.426V40.476ZM87.42 61.87C89.1427 61.87 90.498 61.3887 91.486 60.426C92.474 59.4633 92.968 57.918 92.968 55.79V51.686C92.968 49.558 92.474 48.0127 91.486 47.05C90.498 46.0873 89.1427 45.606 87.42 45.606H83.202V61.87H87.42Z" fill="white"/>
<circle cx="116.5" cy="54.5" r="14" fill="white"/>
<path d="M133.187 43.0455L119.823 56.409C119.042 57.1901 117.776 57.1901 116.995 56.409L111.692 51.1061" stroke="#051A30" stroke-width="4.24242" stroke-linecap="round" stroke-linejoin="round"/>
</svg>
